<?xml version="1.0" encoding="utf-8"?>
<!-- Generator: Adobe Illustrator 17.0.2, SVG Export Plug-In . SVG Version: 6.00 Build 0)  -->
<!DOCTYPE svg PUBLIC "-//W3C//DTD SVG 1.1//EN" "http://www.w3.org/Graphics/SVG/1.1/DTD/svg11.dtd">
<svg version="1.1" id="Layer_1" xmlns="http://www.w3.org/2000/svg" xmlns:xlink="http://www.w3.org/1999/xlink" x="0px" y="0px"
	 width="1310.163px" height="792px" viewBox="0 0 1310.163 792" enable-background="new 0 0 1310.163 792" xml:space="preserve">
<g>
	<g>
		<path fill="#B0D02F" d="M55.157,61.913h74.398v423.803c0,16.748,9.486,25.525,27.727,25.525h25.523v69.998h-32.811
			c-53.984,0-94.838-23.348-94.838-89.729V61.913z"/>
		<path fill="#FF0069" d="M322.485,245.747h1.467c15.33-25.525,40.855-37.188,91.172-37.188
			c82.443,0,130.559,48.875,130.559,113.053c0,59.094-40.83,109.412-120.34,109.412H322.485v38.654
			c0,35.035,22.615,47.406,75.867,47.406c38.654,0,56.867-7.285,70.021-28.434l58.336,44.496
			c-28.434,39.365-69.264,53.961-124.715,53.961c-91.172,0-153.908-30.611-153.908-121.807V212.96h74.399V245.747z M322.485,369.753
			h89.02c43.715,0,64.156-17.506,64.156-44.496c0-24.793-19.682-46.674-70-46.674c-62.027,0-83.176,6.576-83.176,64.178V369.753z"/>
		<rect x="407.104" y="640.358" fill="#666666" width="78.775" height="78.775"/>
		<rect x="278.745" y="640.358" fill="#666666" width="78.752" height="78.775"/>
		<path fill="#F38F15" d="M608.054,61.913h74.398v323.121h1.443l142.246-173.59h88.971l-127.65,144.422l145.156,225.373h-93.348
			l-98.457-172.856l-58.361,66.355v106.5h-74.398V61.913z"/>
		<path fill="#56AFD7" d="M1180.632,548.429h-1.467c-15.33,25.525-40.855,37.188-91.197,37.188
			c-82.418,0-130.559-48.873-130.559-113.053c0-59.07,40.879-109.41,120.363-109.41h102.859v-38.656
			c0-35.01-22.641-47.406-75.891-47.406c-38.654,0-56.869,7.285-70.023,28.459l-58.336-44.498
			c28.459-39.387,69.314-53.984,124.717-53.984c91.195,0,153.908,30.635,153.908,121.807v252.365h-74.375V548.429z
			 M1180.632,424.423h-88.996c-43.764,0-64.18,17.506-64.18,44.498c0,24.791,19.682,46.697,69.998,46.697
			c62.004,0,83.178-6.576,83.178-64.203V424.423z"/>
	</g>
	<g>
		<path fill="#666666" d="M772.694,712.044c-16.797,0-21.172-13.252-21.783-17.629c-0.221-2.078,1.148-3.642,2.395-3.935
			c2.08-0.44,3.449,0.709,4.377,3.326c3.031,8.336,8.143,11.246,15.012,11.246c10.416,0,15.648-5.502,15.648-13.129
			c0-8.875-5.012-11.271-9.291-13.447l-14.791-7.727c-6.896-3.643-10.539-8.752-10.539-16.992c0-13.545,10.539-18.141,20.758-18.141
			c10.611,0,16.553,6.381,17.922,9.803c0.732,1.883,0.318,4.279-1.565,5.014c-1.98,0.732-3.447,0.195-4.793-1.664
			c-2.494-3.764-6.771-6.381-11.565-6.381c-4.596,0-13.057,1.248-13.057,11.906c0,3.545,1.369,7.385,7.213,10.416l15.844,8.142
			c4.279,2.176,11.565,6.869,11.565,18.238C796.044,702.558,789.075,712.044,772.694,712.044z"/>
		<path fill="#666666" d="M879.831,711.628c-1.883,0-3.324-1.467-3.324-3.447v-32.199c0-10.318-3.252-15.746-13.252-15.746
			c-9.486,0-12.836,7.922-12.836,15.525v32.518c0,1.883-1.467,3.35-3.422,3.35c-1.883,0-3.447-1.467-3.447-3.447v-32.102
			c0-10.318-3.131-15.746-13.131-15.746c-9.607,0-14.205,8.117-14.205,15.844v32.004c0,1.883-1.539,3.447-3.422,3.447
			c-1.98,0-3.447-1.564-3.447-3.447v-50.658c0-1.981,1.467-3.447,3.447-3.447c1.883,0,3.422,1.467,3.422,3.324v3.545
			c3.447-4.375,7.213-7.48,14.205-7.48c9.072,0,14.695,3.519,17.604,10c2.91-5.111,7.408-10.123,15.232-10.123
			c14.377,0,20.121,6.676,20.121,24.182v30.756C883.376,710.161,881.812,711.628,879.831,711.628z"/>
		<path fill="#666666" d="M944.745,705.687c1.344,1.467,1.344,3.643,0,4.891c-1.369,1.369-3.447,1.369-4.816-0.098
			c-2.592-2.201-4.695-7.09-4.695-7.09c-4.059,5.109-10.098,8.654-16.869,8.654c-12.42,0-22.004-8.654-22.004-24.303v-10.219
			c0-15.746,9.9-23.863,22.322-23.863c6.037,0,10.928,2.713,15.109,6.969v-3.008c0-1.981,1.441-3.545,3.35-3.545
			c1.98,0,3.422,1.564,3.422,3.447v37.211c0,6.455,3.35,9.902,4.279,10.953H944.745z M933.792,676.813
			c0-9.707-6.039-16.285-15.109-16.285c-9.096,0-15.232,5.844-15.232,15.453v13.35c0,9.682,5.844,15.842,14.914,15.842
			c9.07,0,15.428-6.16,15.428-15.842V676.813z"/>
		<path fill="#666666" d="M986.187,660.749h-8.557c-7.922,0-13.545,6.992-13.545,18.875v28.557c0,1.883-1.566,3.447-3.449,3.447
			c-1.979,0-3.422-1.564-3.422-3.447v-50.781c0-1.857,1.443-3.324,3.422-3.324c1.883,0,3.449,1.467,3.449,3.324v4.084
			c2.713-4.5,7.506-7.629,13.545-7.629h8.557c1.883,0,3.35,1.467,3.35,3.35C989.536,659.185,988.069,660.749,986.187,660.749z"/>
		<path fill="#666666" d="M1020.538,660.431h-10.195v34.4c0,8.461,4.473,10.025,6.674,11.369c1.443,0.953,1.565,3.229,0.734,4.5
			c-1.053,1.564-2.836,1.76-5.135,0.609c-5.184-2.59-9.168-8.752-9.168-16.478v-34.4h-4.793c-1.883,0-3.324-1.441-3.324-3.324
			c0-1.883,1.441-3.447,3.447-3.447h4.67v-13.961c0-1.883,1.564-3.447,3.545-3.447c1.883,0,3.35,1.467,3.35,3.447v13.961h10.195
			c1.906,0,3.447,1.564,3.447,3.447C1023.985,658.989,1022.542,660.431,1020.538,660.431z"/>
		<path fill="#666666" d="M1103.396,643.122h-16.355v65.156c0,1.883-1.467,3.35-3.35,3.35c-1.957,0-3.545-1.467-3.545-3.35v-65.156
			h-16.26c-1.98,0-3.545-1.664-3.545-3.545c0-1.859,1.564-3.326,3.447-3.326h39.607c1.883,0,3.35,1.467,3.35,3.326
			C1106.745,641.458,1105.278,643.122,1103.396,643.122z"/>
		<path fill="#666666" d="M1130.804,712.044c-12.42,0-22.543-7.824-22.543-23.568v-11.15c0-15.744,10.123-23.984,22.543-23.984
			c12.396,0,22.518,8.24,22.518,23.984v11.15C1153.321,704.22,1143.2,712.044,1130.804,712.044z M1146.134,675.761
			c0-9.705-6.381-15.525-15.33-15.525c-9.07,0-15.451,5.82-15.451,15.525v14.377c0,9.705,6.381,15.035,15.451,15.035
			c8.949,0,15.33-5.33,15.33-15.035V675.761z"/>
		<path fill="#666666" d="M1182.073,726.737c-1.271,3.447-3.984,3.35-5.965,3.35h-4.693c-1.98,0-3.424-1.467-3.424-3.35
			s1.564-3.422,3.424-3.422h4.816l5.402-15.453l-18.238-49.729c-0.637-1.762,0.316-3.742,2.199-4.377
			c1.883-0.514,3.643,0.537,4.279,2.299l15.525,41.809l15.012-41.613c0.611-1.859,2.396-3.008,4.182-2.592
			c1.857,0.514,3.104,2.397,2.492,4.279L1182.073,726.737z"/>
		<path fill="#666666" d="M1233.735,712.044c-9.168,0-16.234-4.891-18.238-7.09c-1.346-1.467-1.443-3.447-0.098-4.793
			c1.344-1.369,3.545-1.369,4.889-0.121c1.051,0.953,7.213,5.233,13.668,5.233c11.588,0,13.764-5.43,13.764-10.221
			c0-3.766-2.176-6.455-6.258-7.727l-15.648-4.889c-4.986-1.566-10.611-4.156-10.611-13.35c0-11.564,11.369-15.746,18.973-15.746
			c7.801,0,13.668,3.35,16.676,6.578c1.344,1.369,1.564,3.324,0.098,4.791c-1.248,1.346-3.545,1.346-4.891,0.098
			c-0.953-0.93-5.746-4.572-12.199-4.572c-3.131,0-11.59,0.611-11.59,9.584c0,4.156,2.396,5.307,6.064,6.455l13.959,4.279
			c8.338,2.615,12.715,6.992,12.715,14.4C1255.007,704.44,1249.384,712.044,1233.735,712.044z"/>
	</g>
</g>
</svg>
