<?xml version="1.0" encoding="utf-8"?>
<!-- Generator: Adobe Illustrator 17.0.2, SVG Export Plug-In . SVG Version: 6.00 Build 0)  -->
<!DOCTYPE svg PUBLIC "-//W3C//DTD SVG 1.1//EN" "http://www.w3.org/Graphics/SVG/1.1/DTD/svg11.dtd">
<svg version="1.1" xmlns="http://www.w3.org/2000/svg" xmlns:xlink="http://www.w3.org/1999/xlink" x="0px" y="0px"
	 width="283.465px" height="283.465px" viewBox="0 0 283.465 283.465" enable-background="new 0 0 283.465 283.465"
	 xml:space="preserve">
<g id="Layer_2">
	<g>
		<path fill="#FFFFFF" d="M219.036,224.842c-28.369,47.781-96.277,38.812-127.01,14.394
			c-62.667-49.791,10.155-189.876,81.239-136.258c2.812,2.122,2.124,3.54-0.058,4.355
			C209.349,129.021,247.944,176.153,219.036,224.842z M207.131,203.509c8.709-47.909-23.381-84.085-59.909-97.43
			c-4.096-1.496-5.219-3.205-4.773-4.697c-20.207,0.874-40.883,26.314-49.286,46.921c-11.609,28.47-13.024,63.295,7.495,82.086
			C127.062,254.571,196.895,259.82,207.131,203.509z"/>
		<g>
			<path fill="#EB1D6B" stroke="#EB1D6B" stroke-width="1.4523" stroke-miterlimit="10" d="M124.764,71.232
				c-14.605-10.672-21.313-27.706-29.429-43.34c-2.405-4.633-20.56-4.446-18.916-1.278c8.561,16.489,15.761,33.839,31.147,45.081
				c3.503,2.56,8.844,3.24,13.061,3.125C122.241,74.776,128.286,73.806,124.764,71.232z"/>
			<path fill="#F08F21" stroke="#F08F21" stroke-width="1.4523" stroke-miterlimit="10" d="M197.212,27.503
				c-14.583,11.312-28.103,24.252-37.666,40.234c-1.135,1.898,16.404,7.909,19.348,2.988c9.226-15.418,22.679-27.903,36.726-38.801
				C217.79,30.241,201.483,24.189,197.212,27.503z"/>
			<path fill="#57AED5" stroke="#57AED5" stroke-width="1.4523" stroke-miterlimit="10" d="M256.578,87.435
				c-3.77-0.909-8.616-1.68-12.232,0.215c-10.476,5.486-18.961,14.378-30.357,18.014c-4.173,1.332,1.357,4.055,2.821,4.556
				c3.994,1.366,9.248,2.317,13.407,0.99c12.25-3.908,21.304-13.235,32.535-19.117C265.759,90.517,256.987,87.534,256.578,87.435z"
				/>
			<path fill="#AECD37" stroke="#AECD37" stroke-width="1.4523" stroke-miterlimit="10" d="M27.821,72.983
				c4.395-0.584,10.079-0.934,14.534,1.296C55.262,80.74,66.1,90.46,79.94,95.135c5.067,1.712-1.259,3.971-2.954,4.348
				c-4.621,1.026-10.773,1.521-15.824-0.185c-14.875-5.025-26.428-15.234-40.264-22.16C17.193,75.283,27.345,73.047,27.821,72.983z"
				/>
		</g>
		<g>
			<path fill="#57AED5" d="M132.18,149.103c-0.538-0.764-1.078-1.528-1.61-2.303c-1.04-1.516-4.877-5.068-7.593-5.068
				c-0.527,0-1,0.127-1.406,0.377c-0.303,0.187-0.603,0.377-0.901,0.57l-0.567,0.374c-5.986,4.002-11.123,9.408-15.663,16.471
				c-0.25,0.391-0.44,1.057,0.081,2.01c1.191,2.183,5.585,4.867,7.968,4.867c0.991,0,1.481-0.439,1.718-0.807
				c3.698-5.757,7.638-10.242,12.023-13.688c1.391,2.273,2.281,4.28,2.784,6.266c0.431,1.707,2.073,3.251,5.017,4.717
				c0.259,0.13,2.28,0.986,3.594,0.986c0.598,0,1.04-0.177,1.311-0.526c0.173-0.221,0.347-0.611,0.196-1.206
				C137.871,157.161,134.978,153.064,132.18,149.103z"/>
			<path fill="#57AED5" d="M189.822,159.525c-4.538-7.062-9.675-12.466-15.663-16.471l-0.567-0.374
				c-0.299-0.193-0.599-0.383-0.901-0.57c-0.406-0.25-0.878-0.377-1.406-0.377c-2.715,0-6.552,3.552-7.592,5.068
				c-0.529,0.771-1.067,1.533-1.604,2.294c-2.8,3.964-5.695,8.063-6.958,13.049c-0.151,0.594,0.023,0.984,0.196,1.206
				c0.271,0.349,0.713,0.526,1.311,0.526c1.424,0,3.574-0.976,3.592-0.986c2.943-1.464,4.584-3.008,5.017-4.717
				c0.504-1.987,1.394-3.994,2.785-6.266c4.385,3.447,8.325,7.932,12.023,13.688c0.237,0.367,0.727,0.807,1.717,0.807
				c2.383,0,6.776-2.683,7.968-4.865C190.262,160.582,190.072,159.916,189.822,159.525z"/>
		</g>
	</g>
</g>
<g id="Layer_3">
</g>
</svg>
